# xmcd CD database file
#
# Track frame offsets:
#	150
#	19585
#	31558
#	52478
#	74879
#	88947
#	102622
#	120223
#	146820
#	166966
#	185606
#	198516
#	221952
#
# Disc length: 3243 seconds
#
# Revision: 2
# Processed by: cddbd v1.5.1PL0 Copyright (c) Steve Scherf et al.
# Submitted via: CDex 1.51
#
DISCID=cb0ca90d
DTITLE=Peter Petrel and The Swinging Petrels - Deep In Your Soul
DYEAR=2002
DGENRE=Jazz
TTITLE0=Goodie Goodie
TTITLE1=Drinking Champagne
TTITLE2=Bourbon Street Parade
TTITLE3=I`ll Be Around
TTITLE4=Deep In Your Soul
TTITLE5=Jailer Bring Me Water
TTITLE6=Lean On Me
TTITLE7=Autumn Leaves
TTITLE8=It`s Only A Papermoon
TTITLE9=St. James Infirmary
TTITLE10=Blue Saturday Night
TTITLE11=Tenderly
TTITLE12=Drift Away
EXTD=YEAR: 2002
EXTT0=
EXTT1=
EXTT2=
EXTT3=
EXTT4=
EXTT5=
EXTT6=
EXTT7=
EXTT8=
EXTT9=
EXTT10=
EXTT11=
EXTT12=
PLAYORDER=
